<?xml version="1.0" encoding="iso-8859-1"?>
<!-- Generator: Adobe Illustrator 19.0.0, SVG Export Plug-In . SVG Version: 6.00 Build 0)  -->
<svg version="1.1" id="Capa_1" xmlns="http://www.w3.org/2000/svg" xmlns:xlink="http://www.w3.org/1999/xlink" x="0px" y="0px"
	 viewBox="0 0 468.293 468.293" style="enable-background:new 0 0 468.293 468.293;" xml:space="preserve">
<path style="fill:#F6C358;" d="M257.574,121.109c3.449-11.17,7.903-22.028,14.391-31.753c18.864-28.277,59.591-71.73,109.522-20.638
	c0,0,123.78,107.202,75.722,224.593c-23.23,56.744-79.129,93.584-140.417,95.412c-37.035,1.105-84.33-6.724-138.359-36.375
	c0,0-57.99-40.485-21.746-105.767c8.169-14.714,19.702-27.296,33.189-37.362C208.42,195.379,244.3,164.099,257.574,121.109z"/>
<path style="fill:#FCD462;" d="M227.075,133.759c3.449-11.17,7.903-22.028,14.391-31.753c18.864-28.277,59.591-71.73,109.522-20.638
	c0,0,123.78,107.202,75.722,224.593c-23.23,56.744-79.129,93.584-140.417,95.412c-37.035,1.105-84.33-6.724-138.359-36.375
	c0,0-57.99-40.485-21.746-105.767c8.169-14.714,19.702-27.296,33.189-37.362C177.921,208.029,213.801,176.749,227.075,133.759z"/>
<path style="fill:#F6C358;" d="M184.369,140.134c3.449-11.17,7.903-22.028,14.391-31.753c18.864-28.277,59.591-71.73,109.522-20.638
	c0,0,123.78,107.202,75.722,224.593c-23.23,56.744-79.129,93.584-140.417,95.412c-37.035,1.105-84.33-6.724-138.359-36.375
	c0,0-57.99-40.485-21.746-105.767c8.169-14.714,19.702-27.296,33.189-37.362C135.215,214.405,171.095,183.125,184.369,140.134z"/>
<path style="fill:#FCD462;" d="M148.072,155.503c3.449-11.17,7.903-22.028,14.391-31.753c18.864-28.277,59.591-71.73,109.522-20.638
	c0,0,123.78,107.202,75.722,224.593c-23.23,56.744-79.129,93.584-140.417,95.412c-37.035,1.105-84.33-6.724-138.359-36.375
	c0,0-57.99-40.485-21.746-105.767c8.169-14.714,19.702-27.296,33.189-37.362C98.918,229.773,134.798,198.493,148.072,155.503z"/>
<path style="fill:#F6C358;" d="M112.804,155.503c3.449-11.17,7.903-22.028,14.391-31.753c18.864-28.277,59.591-71.73,109.522-20.638
	c0,0,123.78,107.202,75.722,224.593c-23.23,56.744-79.129,93.584-140.417,95.412c-37.035,1.105-84.33-6.724-138.359-36.375
	c0,0-57.99-40.485-21.746-105.767c8.169-14.714,19.702-27.296,33.189-37.362C63.651,229.773,99.531,198.493,112.804,155.503z"/>
<g>
	<ellipse style="fill:#DC8744;" cx="192.25" cy="237.986" rx="11.476" ry="27.873"/>
	<ellipse style="fill:#DC8744;" cx="125.746" cy="277.442" rx="11.476" ry="18.207"/>
	<ellipse style="fill:#DC8744;" cx="208.503" cy="320.918" rx="11.476" ry="18.207"/>
	<ellipse style="fill:#DC8744;" cx="120.926" cy="364.713" rx="11.476" ry="18.207"/>
	<ellipse style="fill:#DC8744;" cx="65.268" cy="308.63" rx="11.476" ry="18.207"/>
	<ellipse style="fill:#DC8744;" cx="156.247" cy="167.536" rx="11.476" ry="18.207"/>
</g>
<g>
</g>
<g>
</g>
<g>
</g>
<g>
</g>
<g>
</g>
<g>
</g>
<g>
</g>
<g>
</g>
<g>
</g>
<g>
</g>
<g>
</g>
<g>
</g>
<g>
</g>
<g>
</g>
<g>
</g>
</svg>
